<svg width="68" height="68" viewBox="0 0 68 68" fill="none" xmlns="http://www.w3.org/2000/svg">
<path d="M68.0002 38.3695C67.9367 40.6845 65.9792 42.5 63.6635 42.5H56.3143V44.625C56.3143 47.5288 55.6659 50.2807 54.5081 52.7458L62.5071 60.7449C64.1667 62.4046 64.1667 65.0955 62.5071 66.7553C60.8472 68.415 58.1563 68.4149 56.4965 66.7553L49.2269 59.4857C45.9398 62.1516 41.7516 63.75 37.1893 63.75V31.3438C37.1893 30.4636 36.4757 29.75 35.5956 29.75H32.4081C31.5279 29.75 30.8143 30.4636 30.8143 31.3438V63.75C26.2521 63.75 22.0638 62.1516 18.7767 59.4857L11.5071 66.7553C9.8472 68.415 7.15629 68.4149 5.49653 66.7553C3.83691 65.0955 3.83691 62.4046 5.49653 60.7449L13.4956 52.7458C12.3377 50.2807 11.6893 47.5288 11.6893 44.625V42.5H4.34027C2.02455 42.5 0.0670228 40.6845 0.00353843 38.3695C-0.0624694 35.9678 1.86491 34 4.25181 34H11.6893V26.1979L5.49653 20.0051C3.83691 18.3454 3.83691 15.6545 5.49653 13.9947C7.15642 12.335 9.8472 12.335 11.5071 13.9947L18.7622 21.25H49.2412L56.4964 13.9949C58.1563 12.3351 60.8471 12.3351 62.507 13.9949C64.1666 15.6546 64.1666 18.3455 62.507 20.0053L56.3143 26.1979V34H63.7518C66.1387 34 68.0661 35.9678 68.0002 38.3695ZM34.1346 0C25.9194 0 19.2596 6.65975 19.2596 14.875H49.0096C49.0096 6.65975 42.3499 0 34.1346 0Z" fill="#461B09"/>
</svg>
