<svg width="47" height="66" viewBox="0 0 47 66" fill="none" xmlns="http://www.w3.org/2000/svg">
<path d="M23.3049 0C12.9118 0 6.18011 4.21562 0.895088 11.7338C-0.0636362 13.0976 0.231937 14.9676 1.56931 15.9715L7.18623 20.1879C8.53688 21.2017 10.4586 20.9647 11.5161 19.6532C14.7776 15.608 17.197 13.2789 22.2917 13.2789C26.2974 13.2789 31.2521 15.8311 31.2521 19.6766C31.2521 22.5837 28.828 24.0767 24.8728 26.272C20.2605 28.8321 14.1568 32.0181 14.1568 39.9883V41.25C14.1568 42.9587 15.5559 44.3438 17.2818 44.3438H26.7181C28.444 44.3438 29.8431 42.9587 29.8431 41.25V40.5058C29.8431 34.9809 46.1541 34.7508 46.1541 19.8C46.1542 8.54081 34.3571 0 23.3049 0ZM22 48.1412C17.0266 48.1412 12.9804 52.147 12.9804 57.0707C12.9804 61.9942 17.0266 66 22 66C26.9735 66 31.0197 61.9942 31.0197 57.0705C31.0197 52.1468 26.9735 48.1412 22 48.1412Z" fill="white"/>
</svg>
