<svg width="6" height="6" viewBox="0 0 6 6" fill="none" xmlns="http://www.w3.org/2000/svg">
<path d="M2.92998 5.34C2.86332 5.34 2.80665 5.32 2.75998 5.28C2.71998 5.23333 2.69998 5.17667 2.69998 5.11V3.03H0.649983C0.583316 3.03 0.52665 3.01 0.479983 2.97C0.439983 2.92333 0.419983 2.86667 0.419983 2.8V2.48C0.419983 2.41333 0.439983 2.36 0.479983 2.32C0.52665 2.27333 0.583316 2.25 0.649983 2.25H2.69998V0.23C2.69998 0.163333 2.71998 0.11 2.75998 0.0700004C2.80665 0.0233335 2.86332 0 2.92998 0H3.27998C3.34665 0 3.39998 0.0233335 3.43998 0.0700004C3.48665 0.11 3.50998 0.163333 3.50998 0.23V2.25H5.56998C5.63665 2.25 5.68998 2.27333 5.72998 2.32C5.77665 2.36 5.79998 2.41333 5.79998 2.48V2.8C5.79998 2.86667 5.77665 2.92333 5.72998 2.97C5.68998 3.01 5.63665 3.03 5.56998 3.03H3.50998V5.11C3.50998 5.17667 3.48665 5.23333 3.43998 5.28C3.39998 5.32 3.34665 5.34 3.27998 5.34H2.92998Z" fill="black"/>
</svg>
