<svg width="21" height="22" viewBox="0 0 21 22" fill="none" xmlns="http://www.w3.org/2000/svg">
<path d="M19.4239 20.6815C19.191 20.9144 18.9231 21.0425 18.6204 21.0658C18.3176 21.0425 18.0498 20.9144 17.8169 20.6815L10.5504 13.4151L3.38877 20.5767C3.15587 20.8096 2.88803 20.9377 2.58526 20.961C2.28249 20.9377 2.01466 20.8096 1.78176 20.5767L0.663846 19.4588C0.430946 19.2259 0.314497 18.9697 0.314498 18.6903C0.314498 18.3642 0.430947 18.0847 0.663846 17.8518L7.82549 10.6902L0.768649 3.63334C0.53575 3.40044 0.419302 3.14425 0.419303 2.86477C0.419302 2.53871 0.53575 2.25923 0.768649 2.02633L1.99137 0.803613C2.22427 0.570713 2.4921 0.465911 2.79487 0.489201C3.09764 0.465911 3.36547 0.570714 3.59837 0.803613L10.6552 7.86046L17.8518 0.663873C18.0847 0.430975 18.3525 0.326173 18.6553 0.349462C18.9581 0.326171 19.2259 0.430975 19.4588 0.663874L20.5767 1.78179C20.8096 2.01469 20.9261 2.29417 20.9261 2.62023C20.9261 2.89971 20.8096 3.15589 20.5767 3.38879L13.3801 10.5854L20.6466 17.8518C20.8795 18.0847 20.9959 18.3642 20.9959 18.6903C20.9959 18.9697 20.8795 19.2259 20.6466 19.4588L19.4239 20.6815Z" fill="black"/>
</svg>
