<svg width="169" height="45" viewBox="0 0 169 45" fill="none" xmlns="http://www.w3.org/2000/svg">
<path d="M56.7462 35C56.5062 35 56.2902 34.916 56.0982 34.748C55.9302 34.556 55.8462 34.34 55.8462 34.1V10.7C55.8462 10.436 55.9302 10.22 56.0982 10.052C56.2902 9.884 56.5062 9.8 56.7462 9.8H66.1062C69.6342 9.8 72.3702 10.64 74.3142 12.32C76.2582 14 77.2782 16.436 77.3742 19.628C77.3982 20.324 77.4102 21.248 77.4102 22.4C77.4102 23.552 77.3982 24.464 77.3742 25.136C77.2542 28.472 76.2582 30.956 74.3862 32.588C72.5382 34.196 69.8382 35 66.2862 35H56.7462ZM66.1062 29.816C67.6902 29.816 68.8542 29.444 69.5982 28.7C70.3422 27.932 70.7382 26.72 70.7862 25.064C70.8342 24.368 70.8582 23.468 70.8582 22.364C70.8582 21.26 70.8342 20.372 70.7862 19.7C70.7382 18.092 70.3062 16.904 69.4902 16.136C68.6982 15.368 67.5102 14.984 65.9262 14.984H62.3262V29.816H66.1062ZM82.0837 13.58C81.8197 13.58 81.6037 13.496 81.4357 13.328C81.2677 13.16 81.1837 12.944 81.1837 12.68V9.44C81.1837 9.176 81.2677 8.96 81.4357 8.792C81.6037 8.624 81.8197 8.54 82.0837 8.54H86.4037C86.6677 8.54 86.8837 8.624 87.0517 8.792C87.2197 8.96 87.3037 9.176 87.3037 9.44V12.68C87.3037 12.944 87.2197 13.16 87.0517 13.328C86.8837 13.496 86.6677 13.58 86.4037 13.58H82.0837ZM82.1197 35C81.8557 35 81.6397 34.916 81.4717 34.748C81.3037 34.58 81.2197 34.364 81.2197 34.1V17.18C81.2197 16.916 81.3037 16.7 81.4717 16.532C81.6397 16.364 81.8557 16.28 82.1197 16.28H86.3677C86.6317 16.28 86.8477 16.364 87.0157 16.532C87.1837 16.7 87.2677 16.916 87.2677 17.18V34.1C87.2677 34.34 87.1837 34.556 87.0157 34.748C86.8477 34.916 86.6317 35 86.3677 35H82.1197ZM92.4205 35C92.1565 35 91.9405 34.916 91.7725 34.748C91.6045 34.58 91.5205 34.364 91.5205 34.1V17.18C91.5205 16.916 91.6045 16.7 91.7725 16.532C91.9405 16.364 92.1565 16.28 92.4205 16.28H96.5605C96.8245 16.28 97.0405 16.364 97.2085 16.532C97.4005 16.7 97.4965 16.916 97.4965 17.18V18.548C98.1445 17.756 98.9725 17.12 99.9805 16.64C101.012 16.16 102.176 15.92 103.472 15.92C105.584 15.92 107.3 16.64 108.62 18.08C109.94 19.496 110.6 21.488 110.6 24.056V34.1C110.6 34.34 110.516 34.556 110.348 34.748C110.18 34.916 109.964 35 109.7 35H105.164C104.924 35 104.708 34.916 104.516 34.748C104.348 34.556 104.264 34.34 104.264 34.1V24.272C104.264 23.144 103.988 22.28 103.436 21.68C102.884 21.056 102.092 20.744 101.06 20.744C100.052 20.744 99.2605 21.056 98.6845 21.68C98.1085 22.28 97.8205 23.144 97.8205 24.272V34.1C97.8205 34.34 97.7365 34.556 97.5685 34.748C97.4005 34.916 97.1845 35 96.9205 35H92.4205ZM121.637 35.36C119.285 35.36 117.449 34.628 116.129 33.164C114.833 31.676 114.125 29.588 114.005 26.9L113.969 25.64L114.005 24.344C114.101 21.752 114.809 19.7 116.129 18.188C117.473 16.676 119.309 15.92 121.637 15.92C123.821 15.92 125.585 16.628 126.929 18.044V10.34C126.929 10.076 127.013 9.86 127.181 9.692C127.349 9.524 127.565 9.44 127.829 9.44H132.221C132.485 9.44 132.701 9.524 132.869 9.692C133.037 9.86 133.121 10.076 133.121 10.34V34.1C133.121 34.34 133.037 34.556 132.869 34.748C132.701 34.916 132.485 35 132.221 35H128.153C127.913 35 127.697 34.916 127.505 34.748C127.337 34.556 127.253 34.34 127.253 34.1V32.948C125.933 34.556 124.061 35.36 121.637 35.36ZM123.617 30.536C124.697 30.536 125.501 30.2 126.029 29.528C126.557 28.832 126.857 27.944 126.929 26.864C126.953 26.552 126.965 26.096 126.965 25.496C126.965 24.92 126.953 24.476 126.929 24.164C126.881 23.18 126.581 22.364 126.029 21.716C125.477 21.068 124.673 20.744 123.617 20.744C122.489 20.744 121.673 21.08 121.169 21.752C120.689 22.424 120.413 23.348 120.341 24.524C120.317 24.764 120.305 25.136 120.305 25.64C120.305 26.144 120.317 26.516 120.341 26.756C120.413 27.932 120.689 28.856 121.169 29.528C121.673 30.2 122.489 30.536 123.617 30.536ZM138.228 13.58C137.964 13.58 137.748 13.496 137.58 13.328C137.412 13.16 137.328 12.944 137.328 12.68V9.44C137.328 9.176 137.412 8.96 137.58 8.792C137.748 8.624 137.964 8.54 138.228 8.54H142.548C142.812 8.54 143.028 8.624 143.196 8.792C143.364 8.96 143.448 9.176 143.448 9.44V12.68C143.448 12.944 143.364 13.16 143.196 13.328C143.028 13.496 142.812 13.58 142.548 13.58H138.228ZM138.264 35C138 35 137.784 34.916 137.616 34.748C137.448 34.58 137.364 34.364 137.364 34.1V17.18C137.364 16.916 137.448 16.7 137.616 16.532C137.784 16.364 138 16.28 138.264 16.28H142.512C142.776 16.28 142.992 16.364 143.16 16.532C143.328 16.7 143.412 16.916 143.412 17.18V34.1C143.412 34.34 143.328 34.556 143.16 34.748C142.992 34.916 142.776 35 142.512 35H138.264ZM148.565 35C148.301 35 148.085 34.916 147.917 34.748C147.749 34.58 147.665 34.364 147.665 34.1V17.18C147.665 16.916 147.749 16.7 147.917 16.532C148.085 16.364 148.301 16.28 148.565 16.28H152.705C152.969 16.28 153.185 16.364 153.353 16.532C153.545 16.7 153.641 16.916 153.641 17.18V18.548C154.289 17.756 155.117 17.12 156.125 16.64C157.157 16.16 158.321 15.92 159.617 15.92C161.729 15.92 163.445 16.64 164.765 18.08C166.085 19.496 166.745 21.488 166.745 24.056V34.1C166.745 34.34 166.661 34.556 166.493 34.748C166.325 34.916 166.109 35 165.845 35H161.309C161.069 35 160.853 34.916 160.661 34.748C160.493 34.556 160.409 34.34 160.409 34.1V24.272C160.409 23.144 160.133 22.28 159.581 21.68C159.029 21.056 158.237 20.744 157.205 20.744C156.197 20.744 155.405 21.056 154.829 21.68C154.253 22.28 153.965 23.144 153.965 24.272V34.1C153.965 34.34 153.881 34.556 153.713 34.748C153.545 34.916 153.329 35 153.065 35H148.565Z" fill="white"/>
<path d="M20.75 3.89711C21.8329 3.2719 23.1671 3.2719 24.25 3.89711L37.7356 11.683C38.8185 12.3082 39.4856 13.4637 39.4856 14.7141V30.2859C39.4856 31.5363 38.8185 32.6918 37.7356 33.317L24.25 41.1029C23.1671 41.7281 21.8329 41.7281 20.75 41.1029L7.26443 33.317C6.18153 32.6918 5.51443 31.5363 5.51443 30.2859V14.7141C5.51443 13.4637 6.18153 12.3082 7.26443 11.683L20.75 3.89711Z" stroke="#000A4A" stroke-width="5"/>
<path d="M20.75 8.89711C21.8329 8.2719 23.1671 8.2719 24.25 8.89711L33.4054 14.183C34.4883 14.8082 35.1554 15.9637 35.1554 17.2141V27.7859C35.1554 29.0363 34.4883 30.1918 33.4054 30.817L24.25 36.1029C23.1671 36.7281 21.8329 36.7281 20.75 36.1029L11.5946 30.817C10.5117 30.1918 9.84456 29.0363 9.84456 27.7859V17.2141C9.84456 15.9637 10.5117 14.8082 11.5946 14.183L20.75 8.89711Z" stroke="white" stroke-width="5"/>
</svg>
