<svg width="34" height="30" viewBox="0 0 34 30" fill="none" xmlns="http://www.w3.org/2000/svg">
<path d="M30.3333 0H3.66665C1.82831 0 0.333313 1.495 0.333313 3.33333V26.6667C0.333313 28.505 1.82831 30 3.66665 30H30.3333C32.1716 30 33.6666 28.505 33.6666 26.6667V3.33333C33.6666 1.495 32.1716 0 30.3333 0ZM30.335 10C30.3333 10 30.3333 10 30.335 10H29.56L25.115 3.33333H30.3333L30.335 10ZM22.8333 20L13.6666 25V15L22.8333 20ZM21.2266 10L16.7816 3.33333H21.1083L25.5533 10H21.2266ZM17.22 10H12.8933L8.44831 3.33333H12.775L17.22 10ZM3.66665 3.33333H4.44165L8.88665 10H3.66665V3.33333Z" fill="white"/>
</svg>
