<svg width="32" height="31" viewBox="0 0 32 31" fill="none" xmlns="http://www.w3.org/2000/svg">
<path d="M7.585 30.455C6.155 30.455 4.855 29.9567 3.685 28.96C2.55833 27.92 1.67 26.5767 1.02 24.93C0.37 23.2833 0.0450001 21.5283 0.0450001 19.665C0.0450001 16.6317 0.586667 13.7933 1.67 11.15C2.75333 8.46333 4.09667 6.18833 5.7 4.325C7.30333 2.41833 8.84167 1.05333 10.315 0.229997H10.38L12.915 2.505V3.545C11.8317 4.54166 10.8133 5.97166 9.86 7.835C8.95 9.69833 8.495 11.995 8.495 14.725C8.495 16.0683 8.69 17.1733 9.08 18.04C9.47 18.9067 10.0333 19.8167 10.77 20.77C11.42 21.6367 11.8967 22.4167 12.2 23.11C12.5033 23.76 12.655 24.5833 12.655 25.58C12.655 26.9667 12.1567 28.1367 11.16 29.09C10.2067 30 9.015 30.455 7.585 30.455ZM26.305 30.455C24.875 30.455 23.575 29.9567 22.405 28.96C21.2783 27.92 20.39 26.5767 19.74 24.93C19.09 23.2833 18.765 21.5283 18.765 19.665C18.765 16.6317 19.3067 13.7933 20.39 11.15C21.4733 8.46333 22.8167 6.18833 24.42 4.325C26.0233 2.41833 27.5617 1.05333 29.035 0.229997H29.1L31.635 2.505V3.545C30.5517 4.54166 29.5333 5.99333 28.58 7.9C27.6267 9.76333 27.15 12.0383 27.15 14.725C27.15 16.0683 27.345 17.1733 27.735 18.04C28.125 18.9067 28.6883 19.8167 29.425 20.77C30.075 21.6367 30.5517 22.4167 30.855 23.11C31.1583 23.76 31.31 24.5833 31.31 25.58C31.31 26.9667 30.8333 28.1367 29.88 29.09C28.9267 30 27.735 30.455 26.305 30.455Z" fill="#101439"/>
</svg>
