<svg width="24" height="24" viewBox="0 0 24 24" fill="none" xmlns="http://www.w3.org/2000/svg">
<path d="M9.142 21.5855C7.48803 21.0917 5.99009 20.178 4.794 18.9335C5.17884 18.4771 5.41874 17.9162 5.483 17.3226C5.54726 16.7291 5.43296 16.1299 5.15472 15.6016C4.87649 15.0734 4.44698 14.6402 3.92115 14.3575C3.39531 14.0747 2.79708 13.9553 2.203 14.0145C2.06766 13.3516 1.99965 12.6766 2 12C2 10.955 2.16 9.94701 2.458 9.00001H2.5C3.00988 9.00018 3.51139 8.87038 3.95717 8.62289C4.40295 8.37539 4.7783 8.01836 5.04777 7.58551C5.31724 7.15265 5.47194 6.65826 5.49726 6.14901C5.52259 5.63976 5.4177 5.13246 5.1925 4.67501C6.3648 3.58342 7.78253 2.78992 9.326 2.36151C9.57719 2.85471 9.95992 3.26881 10.4319 3.55799C10.9038 3.84716 11.4465 4.00015 12 4.00001C12.5535 4.00015 13.0962 3.84716 13.5681 3.55799C14.0401 3.26881 14.4228 2.85471 14.674 2.36151C16.2175 2.78992 17.6352 3.58342 18.8075 4.67501C18.5807 5.13567 18.4759 5.64684 18.5031 6.15959C18.5304 6.67234 18.6888 7.16952 18.9632 7.60352C19.2376 8.03753 19.6188 8.39384 20.0703 8.63835C20.5219 8.88287 21.0286 9.00739 21.542 9.00001C21.8465 9.97087 22.0009 10.9825 22 12C22 12.69 21.93 13.364 21.797 14.0145C21.2029 13.9553 20.6047 14.0747 20.0789 14.3575C19.553 14.6402 19.1235 15.0734 18.8453 15.6016C18.567 16.1299 18.4527 16.7291 18.517 17.3226C18.5813 17.9162 18.8212 18.4771 19.206 18.9335C18.0099 20.178 16.512 21.0917 14.858 21.5855C14.6638 20.9802 14.2824 20.4521 13.7687 20.0775C13.2551 19.7028 12.6357 19.501 12 19.501C11.3643 19.501 10.7449 19.7028 10.2313 20.0775C9.71765 20.4521 9.33623 20.9802 9.142 21.5855Z" stroke="#888888" stroke-width="2" stroke-linejoin="round"/>
<path d="M12 15.5C12.4596 15.5 12.9148 15.4095 13.3394 15.2336C13.764 15.0577 14.1499 14.7999 14.4749 14.4749C14.7999 14.1499 15.0577 13.764 15.2336 13.3394C15.4095 12.9148 15.5 12.4596 15.5 12C15.5 11.5404 15.4095 11.0852 15.2336 10.6606C15.0577 10.236 14.7999 9.85013 14.4749 9.52513C14.1499 9.20012 13.764 8.94231 13.3394 8.76642C12.9148 8.59053 12.4596 8.5 12 8.5C11.0717 8.5 10.1815 8.86875 9.52513 9.52513C8.86875 10.1815 8.5 11.0717 8.5 12C8.5 12.9283 8.86875 13.8185 9.52513 14.4749C10.1815 15.1313 11.0717 15.5 12 15.5V15.5Z" stroke="#888888" stroke-width="2" stroke-linejoin="round"/>
</svg>
