<svg width="57" height="57" viewBox="0 0 57 57" fill="none" xmlns="http://www.w3.org/2000/svg">
<path d="M49.495 10.9487C48.2819 9.73508 46.8417 8.77235 45.2564 8.11552C43.6712 7.45868 41.9721 7.12061 40.2562 7.12061C38.5403 7.12061 36.8412 7.45868 35.256 8.11552C33.6708 8.77235 32.2305 9.73508 31.0175 10.9487L28.5 13.4662L25.9825 10.9487C23.5322 8.49842 20.2089 7.12188 16.7437 7.12188C13.2785 7.12188 9.95525 8.49842 7.50498 10.9487C5.05471 13.399 3.67816 16.7222 3.67816 20.1874C3.67816 23.6526 5.05471 26.9759 7.50498 29.4262L10.0225 31.9437L28.5 50.4212L46.9775 31.9437L49.495 29.4262C50.7086 28.2131 51.6713 26.7729 52.3281 25.1877C52.985 23.6024 53.3231 21.9033 53.3231 20.1874C53.3231 18.4715 52.985 16.7724 52.3281 15.1872C51.6713 13.602 50.7086 12.1617 49.495 10.9487V10.9487Z" stroke="#212D59" stroke-width="4.75" stroke-linecap="round" stroke-linejoin="round"/>
</svg>
