<svg width="60" height="60" viewBox="0 0 60 60" fill="none" xmlns="http://www.w3.org/2000/svg">
<path d="M29.9999 59.9999C46.5684 59.9999 59.9999 46.5684 59.9999 29.9999C59.9999 13.4314 46.5684 0 29.9999 0C13.4314 0 0 13.4314 0 29.9999C0 46.5684 13.4314 59.9999 29.9999 59.9999Z" fill="#FFC10E"/>
<path d="M45.1544 44.8288C36.7697 36.2684 23.0943 36.304 14.7584 44.9178C13.6963 46.0149 15.3695 47.6913 16.4329 46.5923C23.8858 38.8908 35.9772 38.8439 43.4798 46.5033C44.5499 47.5963 46.2236 45.9202 45.1544 44.8288Z" fill="#333333"/>
<path d="M20.8811 24.3637C23.4832 24.3637 25.5927 22.2543 25.5927 19.6522C25.5927 17.0501 23.4832 14.9407 20.8811 14.9407C18.279 14.9407 16.1696 17.0501 16.1696 19.6522C16.1696 22.2543 18.279 24.3637 20.8811 24.3637Z" fill="#333333"/>
<path d="M38.6973 24.3637C41.2994 24.3637 43.4089 22.2543 43.4089 19.6522C43.4089 17.0501 41.2994 14.9407 38.6973 14.9407C36.0952 14.9407 33.9858 17.0501 33.9858 19.6522C33.9858 22.2543 36.0952 24.3637 38.6973 24.3637Z" fill="#333333"/>
<path d="M43.4448 23.8782C43.4448 23.8782 39.9612 28.1666 39.9612 32.5906C39.9612 34.5153 41.5196 36.0748 43.4443 36.0753C45.3709 36.0744 46.9299 34.5149 46.9299 32.5903C46.9299 30.4481 43.4448 23.8782 43.4448 23.8782Z" fill="#A2D4DE"/>
</svg>
