<svg width="86" height="86" viewBox="0 0 86 86" fill="none" xmlns="http://www.w3.org/2000/svg">
<path d="M49.5844 30.5031L52.9438 5.50937C49.7188 4.70312 46.4938 2.6875 43 2.6875C39.5062 2.6875 36.2812 4.70312 32.9219 5.64375C29.5625 6.45 25.8 6.31562 22.8438 8.0625C19.8875 9.80937 18.0063 13.1688 15.5875 15.5875C13.1688 18.0063 9.80937 19.8875 8.0625 22.8438C6.31562 25.8 6.45 29.5625 5.50937 32.9219C4.70312 36.2812 2.6875 39.5062 2.6875 43C2.6875 46.4938 4.70312 49.7188 5.64375 53.0781C6.45 56.4375 6.31562 60.2 8.0625 63.1562C9.80937 66.1125 13.1688 67.9938 15.5875 70.4125C18.0063 72.8313 19.7531 76.1906 22.8438 77.9375C25.8 79.6844 29.5625 79.55 32.9219 80.4906C36.2812 81.2969 39.5062 83.3125 43 83.3125C46.4938 83.3125 49.7188 81.2969 53.0781 80.3562C56.4375 79.4156 60.2 79.55 63.1562 77.8031C66.1125 76.0563 67.9938 72.6969 70.4125 70.2781C72.8313 67.8594 76.1906 66.1125 77.9375 63.0219C79.6844 60.0656 79.55 56.3031 80.4906 52.9438C81.2969 49.7188 83.3125 46.4938 83.3125 43C83.3125 39.5062 80.4906 32.1156 80.4906 32.1156L49.5844 30.5031Z" fill="#DDA85F"/>
<path d="M79.8187 30.1C78.4749 30.5031 76.5937 30.3687 74.578 29.5625C71.7562 28.4875 70.0093 26.2031 69.4718 23.5156C68.1281 23.9187 64.903 23.5156 62.7531 22.1719C59.528 20.1562 58.8562 14.5125 58.8562 14.5125C55.2281 13.4375 52.5406 9.1375 52.9437 5.50937C49.9874 4.70313 46.2249 4.8375 42.9999 4.8375C39.7749 4.8375 36.8187 6.71875 33.8624 7.525C30.7718 8.33125 27.2781 8.19687 24.5906 9.80937C21.9031 11.4219 20.1562 14.5125 18.0062 16.6625C15.7218 18.9469 12.6312 20.5594 11.1531 23.2469C9.54056 25.9344 9.67493 29.4281 8.86868 32.5187C8.06243 35.475 6.18118 38.4312 6.18118 41.6562C6.18118 44.8812 8.06243 47.8375 8.86868 50.7937C9.67493 53.8844 9.54056 57.3781 11.1531 60.0656C12.7656 62.7531 15.8562 64.5 18.0062 66.65C20.2906 68.9344 21.9031 72.025 24.5906 73.5031C27.2781 75.1156 30.7718 74.9812 33.8624 75.7875C36.8187 76.5937 39.7749 78.475 42.9999 78.475C46.2249 78.475 49.1812 76.5937 52.1374 75.7875C55.2281 74.9812 58.7218 75.1156 61.4093 73.5031C64.0968 71.8906 65.8437 68.8 67.9937 66.65C70.278 64.3656 73.3687 62.7531 74.8468 60.0656C76.4593 57.3781 76.3249 53.8844 77.1312 50.7937C77.9374 47.8375 81.1624 45.4187 81.5655 42.1937C82.6405 36.9531 79.953 31.0406 79.8187 30.1Z" fill="#F2CB7D"/>
<path d="M67.322 14.5125L65.4407 16.3937L63.6938 14.5125L65.4407 12.7656L67.322 14.5125Z" fill="#DDA85F"/>
<path d="M74.9812 23.9187L74.175 24.8593L73.2344 23.9187L74.175 22.978L74.9812 23.9187Z" fill="#DDA85F"/>
<path d="M68.2626 17.7375L67.322 18.6781L66.3813 17.7375L67.322 16.7969L68.2626 17.7375Z" fill="#DDA85F"/>
<path d="M59.9313 9.54072L58.9907 10.4813L58.05 9.54072L58.9907 8.6001L59.9313 9.54072Z" fill="#DDA85F"/>
<path d="M76.8626 27.278L75.922 28.2187L74.9814 27.278L75.922 26.3374L76.8626 27.278Z" fill="#DDA85F"/>
<path d="M77.6688 23.9187L76.7282 24.8593L75.7876 23.9187L76.7282 22.978L77.6688 23.9187Z" fill="#DDA85F"/>
<path d="M15.8563 27.6813C14.5126 29.9657 16.5282 34.1313 19.2157 35.3407C23.1126 36.9532 25.3969 37.222 27.8157 33.0564C28.6219 31.5782 29.6969 27.6813 29.2938 26.7407C28.7563 25.397 26.4719 22.7095 24.9938 22.7095C20.8282 22.8438 16.7969 26.0688 15.8563 27.6813Z" fill="#6D4934"/>
<path d="M16.5282 27.6814C15.5876 29.2939 18.0063 34.1314 21.2313 33.7282C25.6657 33.1907 25.2626 24.0532 23.3813 24.0532C20.1563 24.0532 17.2001 26.472 16.5282 27.6814Z" fill="#A37F6A"/>
<path d="M60.7375 52.5407C62.6187 52.0032 63.9625 48.6438 63.1562 46.6282C61.9468 43.5376 60.7375 42.1938 57.2437 43.1345C56.0343 43.5376 53.2125 45.0157 52.9437 45.6876C52.5406 46.7626 52.2718 49.4501 53.0781 50.2563C55.3625 52.5407 59.3937 52.9438 60.7375 52.5407Z" fill="#6D4934"/>
<path d="M58.8563 49.3156C60.3344 48.9125 62.6188 44.3437 60.2 44.075C56.0344 43.4031 52.8094 45.4188 53.2125 47.7031C53.6156 49.9875 57.7813 49.5844 58.8563 49.3156Z" fill="#A37F6A"/>
<path d="M33.4594 59.7969C33.0563 58.1844 30.1 56.975 28.2188 57.7813C25.5313 58.8563 24.3219 59.7969 25.2625 62.8875C25.5313 63.9625 26.875 66.3813 27.5469 66.5157C28.4875 66.9188 30.7719 67.0532 31.4438 66.3813C33.4594 64.5 33.7282 61.0063 33.4594 59.7969Z" fill="#6D4934"/>
<path d="M31.175 58.5876C30.9062 57.3782 25.2625 59.1251 25.8 61.2751C26.875 64.9032 26.875 65.4407 27.95 65.3063C29.9656 64.7688 31.3093 59.5282 31.175 58.5876Z" fill="#A37F6A"/>
<path d="M68.6656 34.2654C67.0531 34.6686 65.8438 37.6248 66.65 39.5061C67.725 42.1936 70.2781 42.5967 73.1 41.1186C75.5187 39.9092 75.6531 35.6092 74.9812 34.8029C72.9656 32.7873 69.875 33.9967 68.6656 34.2654Z" fill="#6D4934"/>
<path d="M67.9938 35.7437C67.1875 36.6843 66.5156 40.4468 68.5313 39.9093C72.1594 38.8343 74.7125 35.2062 73.1 34.6687C71.0844 33.9968 68.9344 34.6687 67.9938 35.7437Z" fill="#A37F6A"/>
<path d="M30.5569 21.6506L33.2175 18.99L35.8781 21.6506L33.2175 24.3112L30.5569 21.6506Z" fill="#6D4934"/>
<path d="M19.7612 44.9927L22.4204 42.332L25.0811 44.9913L22.4218 47.6519L19.7612 44.9927Z" fill="#DDA85F"/>
<path d="M46.6254 60.2146L49.286 57.554L51.9466 60.2146L49.286 62.8752L46.6254 60.2146Z" fill="#DDA85F"/>
<path d="M43.0511 52.7945L46.6617 49.1838L50.2724 52.7945L46.6617 56.4051L43.0511 52.7945Z" fill="#DDA85F"/>
<path d="M33.1852 13.2049L36.7959 9.59424L40.4066 13.2049L36.7959 16.8156L33.1852 13.2049Z" fill="#DDA85F"/>
<path d="M55.2577 62.2783L57.9183 59.6177L60.5789 62.2783L57.9183 64.9389L55.2577 62.2783Z" fill="#6D4934"/>
<path d="M65.9458 47.3198L68.6064 44.6592L71.267 47.3198L68.6064 49.9804L65.9458 47.3198Z" fill="#6D4934"/>
<path d="M56.1848 33.1057L57.5151 31.7754L58.8454 33.1057L57.5151 34.436L56.1848 33.1057Z" fill="#6D4934"/>
<path d="M18.4443 51.4197L19.7746 50.0894L21.1049 51.4197L19.7746 52.75L18.4443 51.4197Z" fill="#6D4934"/>
</svg>
