<svg width="20" height="16" viewBox="0 0 20 16" fill="none" xmlns="http://www.w3.org/2000/svg">
<path d="M9.99999 12.5C7.62968 12.5 5.71093 10.6653 5.53437 8.34031L2.25624 5.80688C1.82531 6.3475 1.42874 6.91906 1.10874 7.54406C1.03726 7.68547 1.00001 7.8417 1.00001 8.00016C1.00001 8.15861 1.03726 8.31484 1.10874 8.45625C2.80343 11.7628 6.15843 14 9.99999 14C10.8409 14 11.6522 13.875 12.4341 13.6731L10.8125 12.4184C10.5447 12.4702 10.2727 12.4975 9.99999 12.5ZM19.8069 14.3156L16.3522 11.6456C17.4016 10.7612 18.2647 9.67697 18.8912 8.45594C18.9627 8.31453 19 8.1583 19 7.99984C19 7.84139 18.9627 7.68516 18.8912 7.54375C17.1966 4.23719 13.8416 2 9.99999 2C8.39109 2.00195 6.80831 2.40699 5.39624 3.17812L1.42062 0.105312C1.36878 0.0649711 1.30949 0.0352408 1.24615 0.0178204C1.18282 0.000399947 1.11667 -0.00436906 1.05149 0.00378587C0.986304 0.0119408 0.923369 0.0328598 0.866275 0.0653475C0.809182 0.0978352 0.75905 0.141255 0.718743 0.193125L0.105306 0.982813C0.0239305 1.0875 -0.0125333 1.22021 0.0039342 1.35178C0.0204017 1.48334 0.088452 1.60298 0.193118 1.68438L18.5794 15.8947C18.6312 15.935 18.6905 15.9648 18.7538 15.9822C18.8172 15.9996 18.8833 16.0044 18.9485 15.9962C19.0137 15.9881 19.0766 15.9671 19.1337 15.9347C19.1908 15.9022 19.2409 15.8587 19.2812 15.8069L19.895 15.0172C19.9763 14.9125 20.0127 14.7797 19.9962 14.6482C19.9797 14.5166 19.9116 14.397 19.8069 14.3156ZM14.0656 9.87813L12.8375 8.92875C12.9409 8.62983 12.9958 8.31628 13 8C13.0061 7.53696 12.9035 7.07894 12.7005 6.66273C12.4975 6.24653 12.1996 5.88374 11.831 5.60351C11.4623 5.32327 11.0331 5.13341 10.5777 5.04917C10.1223 4.96492 9.65358 4.98865 9.20906 5.11844C9.3975 5.37378 9.49943 5.68265 9.49999 6C9.49533 6.1056 9.47919 6.21039 9.45187 6.3125L7.15156 4.53469C7.95061 3.86694 8.95866 3.50077 9.99999 3.5C10.591 3.49967 11.1763 3.61584 11.7225 3.84187C12.2686 4.0679 12.7648 4.39936 13.1827 4.81729C13.6006 5.23522 13.9321 5.73142 14.1581 6.27754C14.3841 6.82365 14.5003 7.40896 14.5 8C14.5 8.67594 14.3347 9.30594 14.0656 9.87844V9.87813Z" fill="black"/>
</svg>
