<svg width="18" height="12" viewBox="0 0 18 12" fill="none" xmlns="http://www.w3.org/2000/svg">
<path d="M17.8912 5.54375C16.1965 2.23719 12.8415 0 8.99998 0C5.15842 0 1.80248 2.23875 0.108733 5.54406C0.037246 5.68547 0 5.8417 0 6.00016C0 6.15861 0.037246 6.31484 0.108733 6.45625C1.80342 9.76281 5.15842 12 8.99998 12C12.8415 12 16.1975 9.76125 17.8912 6.45594C17.9627 6.31453 18 6.1583 18 5.99984C18 5.84139 17.9627 5.68516 17.8912 5.54375V5.54375ZM8.99998 10.5C8.10997 10.5 7.23994 10.2361 6.49992 9.74161C5.7599 9.24715 5.18312 8.54434 4.84253 7.72208C4.50193 6.89981 4.41282 5.99501 4.58645 5.12209C4.76008 4.24918 5.18867 3.44736 5.818 2.81802C6.44734 2.18868 7.24916 1.7601 8.12208 1.58647C8.99499 1.41283 9.89979 1.50195 10.7221 1.84254C11.5443 2.18314 12.2471 2.75991 12.7416 3.49993C13.2361 4.23995 13.5 5.10998 13.5 6C13.5003 6.59103 13.3841 7.17632 13.158 7.72242C12.932 8.26851 12.6005 8.7647 12.1826 9.18262C11.7647 9.60054 11.2685 9.932 10.7224 10.158C10.1763 10.3841 9.59101 10.5003 8.99998 10.5V10.5ZM8.99998 3C8.73221 3.00374 8.46617 3.04358 8.20905 3.11844C8.42099 3.40646 8.5227 3.7609 8.49572 4.11748C8.46875 4.47406 8.31487 4.80917 8.06201 5.06203C7.80915 5.31489 7.47405 5.46876 7.11747 5.49574C6.76088 5.52271 6.40644 5.42101 6.11842 5.20906C5.95441 5.81331 5.98402 6.45377 6.20307 7.04031C6.42213 7.62685 6.8196 8.12993 7.33955 8.47874C7.8595 8.82754 8.47574 9.00452 9.10153 8.98475C9.72733 8.96498 10.3312 8.74946 10.8281 8.36853C11.325 7.9876 11.6899 7.46044 11.8715 6.86125C12.0531 6.26205 12.0422 5.62099 11.8404 5.0283C11.6386 4.43561 11.256 3.92114 10.7464 3.55728C10.2369 3.19343 9.62609 2.99853 8.99998 3V3Z" fill="black"/>
</svg>
