<svg width="39" height="45" viewBox="0 0 39 45" fill="none" xmlns="http://www.w3.org/2000/svg">
<path d="M17.75 3.89711C18.8329 3.2719 20.1671 3.2719 21.25 3.89711L34.7356 11.683C35.8185 12.3082 36.4856 13.4637 36.4856 14.7141V30.2859C36.4856 31.5363 35.8185 32.6918 34.7356 33.317L21.25 41.1029C20.1671 41.7281 18.8329 41.7281 17.75 41.1029L4.26443 33.317C3.18153 32.6918 2.51443 31.5363 2.51443 30.2859V14.7141C2.51443 13.4637 3.18153 12.3082 4.26443 11.683L17.75 3.89711Z" stroke="#000A4A" stroke-width="5"/>
<path d="M17.75 8.89711C18.8329 8.2719 20.1671 8.2719 21.25 8.89711L30.4054 14.183C31.4883 14.8082 32.1554 15.9637 32.1554 17.2141V27.7859C32.1554 29.0363 31.4883 30.1918 30.4054 30.817L21.25 36.1029C20.1671 36.7281 18.8329 36.7281 17.75 36.1029L8.59456 30.817C7.51165 30.1918 6.84456 29.0363 6.84456 27.7859V17.2141C6.84456 15.9637 7.51165 14.8082 8.59456 14.183L17.75 8.89711Z" stroke="white" stroke-width="5"/>
</svg>
