<svg width="32" height="32" viewBox="0 0 32 32" fill="none" xmlns="http://www.w3.org/2000/svg">
<path d="M26.2937 28.1688C23.5187 30.5126 19.9187 32 15.9999 32C10.1687 32 5.04984 28.7875 2.2749 24.1L3.31378 19.3112L7.91865 18.4563C8.9874 21.9062 12.2123 24.4375 15.9999 24.4375C17.8373 24.4375 19.5437 23.8563 20.9499 22.8251L25.3749 23.5L26.2937 28.1688Z" fill="#59C36A"/>
<path d="M26.2938 28.1687L25.375 23.5L20.95 22.825C19.5438 23.8562 17.8374 24.4375 16 24.4375V32C19.9188 32 23.5188 30.5125 26.2938 28.1687Z" fill="#00A66C"/>
<path d="M7.5625 15.9999C7.5625 16.8623 7.69375 17.6873 7.91875 18.4562L2.275 24.0999C0.86875 21.7374 0 18.9623 0 15.9999C0 13.0373 0.86875 10.2624 2.275 7.8999L6.80456 8.67946L7.91875 13.5437C7.69375 14.3123 7.5625 15.1373 7.5625 15.9999Z" fill="#FFDA2D"/>
<path d="M32 16C32 20.8749 29.7438 25.2438 26.2938 28.1688L20.95 22.825C22.0374 22.0374 22.9562 20.9874 23.5562 19.75H16C15.4749 19.75 15.0625 19.3374 15.0625 18.8125V13.1875C15.0625 12.6624 15.4749 12.25 16 12.25H30.8C31.25 12.25 31.6437 12.5687 31.7188 13.0187C31.9062 13.9937 32 15.0062 32 16Z" fill="#4086F4"/>
<path d="M23.5563 19.75C22.9563 20.9874 22.0374 22.0374 20.9501 22.825L26.2938 28.1688C29.7438 25.2438 32 20.875 32 16C32 15.0062 31.9062 13.9937 31.7187 13.0187C31.6437 12.5687 31.2499 12.25 30.7999 12.25H16V19.75H23.5563Z" fill="#4175DF"/>
<path d="M26.5562 4.46869C26.5749 4.73119 26.4624 4.975 26.2937 5.16244L22.2812 9.15619C21.9625 9.49369 21.4375 9.53119 21.0625 9.24994C19.5811 8.14375 17.8373 7.5625 15.9999 7.5625C12.2123 7.5625 8.9874 10.0937 7.91865 13.5437L2.2749 7.9C5.04984 3.2125 10.1687 0 15.9999 0C19.7312 0 23.3687 1.375 26.2187 3.77494C26.4249 3.94375 26.5374 4.20619 26.5562 4.46869Z" fill="#FF641A"/>
<path d="M21.0625 9.24994C21.4375 9.53125 21.9624 9.49369 22.2812 9.15619L26.2937 5.16244C26.4625 4.975 26.575 4.73125 26.5562 4.46869C26.5374 4.20613 26.4249 3.94375 26.2187 3.77494C23.3687 1.375 19.7313 0 16 0V7.5625C17.8374 7.5625 19.5812 8.14375 21.0625 9.24994Z" fill="#F03800"/>
</svg>
