<svg width="24" height="24" viewBox="0 0 24 24" fill="none" xmlns="http://www.w3.org/2000/svg">
<path opacity="0.35" d="M20.011 3.98899C18.693 2.67099 16.556 2.67099 15.238 3.98899L4.20801 14.998C3.90601 15.3 3.70501 15.687 3.63201 16.108L3.01701 19.675C2.88401 20.447 3.55501 21.117 4.32701 20.983L7.85201 20.37C8.27001 20.297 8.65601 20.097 8.95601 19.797L20.011 8.76099C21.33 7.44299 21.33 5.30699 20.011 3.98899Z" fill="black"/>
<path d="M13.075 6.14399L17.848 10.917L19.832 8.93999L15.059 4.16699L13.075 6.14399Z" fill="black"/>
<path d="M3.39201 17.5L3.01701 19.675C2.88401 20.447 3.55501 21.117 4.32701 20.983L6.49801 20.605L3.39201 17.5Z" fill="black"/>
</svg>
