<svg width="8" height="9" viewBox="0 0 8 9" fill="none" xmlns="http://www.w3.org/2000/svg">
<path d="M5.87061 6.68519C5.82347 6.73233 5.76926 6.75826 5.70798 6.76298C5.6467 6.75826 5.59248 6.73233 5.54534 6.68519L4.07456 5.21441L2.62499 6.66398C2.57785 6.71112 2.52364 6.73705 2.46236 6.74176C2.40108 6.73705 2.34686 6.71112 2.29972 6.66398L2.07345 6.43771C2.02631 6.39057 2.00274 6.33871 2.00274 6.28214C2.00274 6.21615 2.02631 6.15958 2.07345 6.11244L3.52302 4.66287L2.09466 3.23451C2.04752 3.18737 2.02395 3.13552 2.02395 3.07895C2.02395 3.01295 2.04752 2.95638 2.09466 2.90924L2.34215 2.66176C2.38929 2.61462 2.4435 2.5934 2.50478 2.59812C2.56607 2.5934 2.62028 2.61462 2.66742 2.66176L4.09577 4.09011L5.55241 2.63347C5.59956 2.58633 5.65377 2.56512 5.71505 2.56983C5.77633 2.56512 5.83054 2.58633 5.87768 2.63347L6.10396 2.85975C6.1511 2.90689 6.17467 2.96346 6.17467 3.02945C6.17467 3.08602 6.1511 3.13788 6.10396 3.18502L4.64732 4.64166L6.1181 6.11244C6.16524 6.15958 6.18881 6.21615 6.18881 6.28214C6.18881 6.33871 6.16524 6.39057 6.1181 6.43771L5.87061 6.68519Z" fill="white"/>
</svg>
