<svg width="82" height="82" viewBox="0 0 82 82" fill="none" xmlns="http://www.w3.org/2000/svg">
<path d="M27.3333 54.6666V40.9999C27.3333 37.3753 28.7731 33.8991 31.3361 31.3361C33.8991 28.7731 37.3753 27.3333 40.9999 27.3333C44.6245 27.3333 48.1007 28.7731 50.6637 31.3361C53.2267 33.8991 54.6666 37.3753 54.6666 40.9999V54.6666" fill="#FF7474"/>
<path d="M62.8667 19.1333L60.475 21.525M10.25 41H13.6667H10.25ZM41 10.25V13.6667V10.25ZM68.3333 41H71.75H68.3333ZM19.1333 19.1333L21.525 21.525L19.1333 19.1333Z" stroke="#FFCC81" stroke-width="5.125" stroke-linecap="round" stroke-linejoin="round"/>
<path d="M58.0833 54.6667H23.9167C22.0297 54.6667 20.5 56.1964 20.5 58.0834V64.9167C20.5 66.8037 22.0297 68.3334 23.9167 68.3334H58.0833C59.9703 68.3334 61.5 66.8037 61.5 64.9167V58.0834C61.5 56.1964 59.9703 54.6667 58.0833 54.6667Z" fill="#C6E0FF"/>
</svg>
